<?xml version="1.0" encoding="utf-8"?>
<!-- Generator: Adobe Illustrator 26.5.0, SVG Export Plug-In . SVG Version: 6.00 Build 0)  -->
<svg version="1.1" id="Group_1" xmlns="http://www.w3.org/2000/svg" xmlns:xlink="http://www.w3.org/1999/xlink" x="0px" y="0px"
	 viewBox="0 0 122 179" style="enable-background:new 0 0 122 179;" xml:space="preserve">
<style type="text/css">
	.st0{fill:#002171;}
	.st1{fill:#E60000;}
	.st2{fill:#FFFFFF;}
</style>
<g>
	<g>
		<polygon class="st0" points="122,121.7 0,121.7 0,156.1 0.2,156.1 61,177.1 121.8,156.1 122,156.1 		"/>
		<g id="_e60000ff">
			<path id="Path_1149" class="st1" d="M0,0h122v121.9c-1,0.1-2,0-2.9,0.1c-39.7,0-79.4,0-119.1,0V0 M15.8,9.1c-2.5,0.9-4.7,2.6-6,5
				c-1.4,2.5-1.8,5.3-1.2,8.1c0.9,4.2,4.2,7.4,8.3,8.3c2.7,0.6,5.5,0.3,8-0.8c2.5-1.2,4.3-3.4,5-6.1c0.4-1.6,0.5-3.2,0.4-4.7
				c-3.6,0-7.2,0-10.7,0c0,1.2,0,2.5,0,3.7c2.2,0,4.3,0,6.5,0c-0.4,1.2-1.2,2.3-2.3,3c-1.6,0.9-3.5,1.2-5.3,0.9
				c-1.8-0.2-3.4-1.1-4.6-2.5c-1.2-1.6-1.7-3.6-1.4-5.6c0.2-1.6,1-3,2.1-4.1c1.5-1.3,3.5-2,5.6-1.7c2,0.2,3.8,1.2,5,2.9
				c1.2-0.7,2.4-1.4,3.6-2.1c-1.4-2.3-3.7-4-6.4-4.6C20.3,8.3,18,8.4,15.8,9.1 M82.7,12c0,1,0,2,0,3.1c-0.9,0-1.8,0-2.7,0
				c0,1.3,0,2.5,0,3.8c0.9,0,1.8,0,2.7,0c0,1.7,0,3.3,0,5c-0.1,1.2,0,2.5,0.3,3.7c0.3,1.1,1,2,2,2.4c1.6,0.6,3.4,0.7,5.1,0.4
				c0-1.2,0-2.4,0-3.6c-0.9,0.1-1.9,0.1-2.8-0.2c-0.5-0.3-0.8-0.8-0.7-1.4c0-2.1,0-4.2,0-6.3c1.2,0,2.3,0,3.5,0c0-1.3,0-2.5,0-3.8
				c-1.1,0-2.3,0-3.4,0c0-1.4,0-2.8,0-4.3C85.4,11.1,84.1,11.5,82.7,12 M49.3,14.8c-1.8,0.4-3.5,1.5-4.5,3c-1.3,1.9-1.8,4.2-1.3,6.4
				c0.4,2.1,1.6,4,3.4,5.2c2,1.2,4.4,1.6,6.8,1.1c1.9-0.3,3.7-1.5,4.8-3.1c-1.1-0.6-2.1-1.2-3.2-1.8c-1.2,1.6-3.6,1.8-5.4,1.2
				c-1.2-0.4-2.1-1.4-2.3-2.6c3.8,0,7.7,0,11.5,0c0.2-1.2,0.2-2.4,0-3.5c-0.4-2.1-1.6-3.9-3.4-5C53.6,14.6,51.4,14.3,49.3,14.8
				 M66.7,14.8c-2,0.5-3.6,1.8-4.7,3.5c-1.1,1.9-1.4,4.1-1,6.2c0.4,2.3,1.8,4.3,3.9,5.4c1.5,0.8,3.3,1.1,5,0.7c1.3-0.3,2.5-1,3.3-2
				c0.1,0.6,0,1.2,0,1.8h3.9V15c-1.3,0-2.6,0-3.9,0c0,0.6,0,1.2,0,1.8C71.7,14.9,69.1,14.1,66.7,14.8 M38.5,15.4
				c-0.8,0.5-1.5,1.3-1.8,2.2c0-0.8,0-1.7,0-2.5h-3.8c0,5.1,0,10.2,0,15.3c1.2,0,2.5,0,3.7,0c0-2.5,0-5,0-7.5c0-1,0.3-1.9,0.9-2.6
				c0.9-0.9,2.2-1.3,3.5-1.1c0-1.5,0-3,0-4.4C40.2,14.7,39.3,14.9,38.5,15.4 M11.2,57.2c1.4,0,2.8,0,4.2,0c0-2.3,0-4.7,0-7
				c1.5,0,3,0,4.6,0c2.8-0.3,5.2-2.1,6.1-4.7c0.4-1.3,0.5-2.8,0.2-4.2c-0.7-2.7-2.8-4.8-5.6-5.3c-0.9-0.1-1.9-0.2-2.9-0.1
				c-2.2,0-4.4,0-6.7,0C11.2,42.9,11.2,50,11.2,57.2 M29.3,36c0,7.1,0,14.1,0,21.2c1.3,0,2.6,0,3.9,0c0-7.1,0-14.1,0-21.2H29.3
				 M37.9,45.1c-1.1,1.9-1.5,4.1-1,6.3c0.4,2.2,1.7,4.1,3.6,5.3c1.7,1,3.7,1.3,5.6,0.7c1.2-0.3,2.2-1,3-2c0,0.6,0,1.2,0,1.8
				c1.3,0,2.6,0,4,0c0-5.1,0-10.2,0-15.3c-1.3,0-2.6,0-4,0c0,0.6,0,1.2,0,1.8c-0.4-0.5-0.9-0.9-1.4-1.3c-1.4-0.8-3.1-1.1-4.7-0.9
				C40.9,41.9,39,43.2,37.9,45.1 M62.2,41.8c-2.4,0.7-4.3,2.4-5.2,4.7c-0.6,1.5-0.7,3.2-0.4,4.8c0.5,2.5,2.2,4.7,4.5,5.7
				c1.6,0.7,3.4,0.9,5.2,0.5c2.2-0.5,4.1-1.8,5.2-3.8c-1.1-0.7-2.3-1.3-3.4-2c-1.1,2.3-4.6,2.7-6.4,0.9c-1.7-1.7-1.7-4.5,0.1-6.2
				c0.1-0.1,0.2-0.2,0.3-0.3c1.8-1.3,4.4-0.9,5.7,0.9c0.1,0.1,0.2,0.2,0.2,0.4c1.1-0.7,2.3-1.3,3.4-2c-0.6-1.2-1.5-2.1-2.7-2.8
				C66.7,41.5,64.4,41.2,62.2,41.8 M77.8,42.4c-2.1,1.1-3.6,3.1-4,5.5c-0.4,2.1,0,4.4,1.1,6.2s2.9,3,5,3.4c2,0.4,4.1,0.2,5.9-0.6
				c1.1-0.6,2.1-1.4,2.9-2.5c-1.1-0.6-2.1-1.2-3.2-1.8c-1.2,1.6-3.5,1.8-5.4,1.2c-1.1-0.4-2-1.3-2.3-2.4c-0.1-0.2,0.2-0.2,0.3-0.2
				c3.7,0,7.4,0,11.1,0c0.4-1.9,0.1-3.9-0.8-5.6c-1-1.9-2.7-3.3-4.8-3.8C81.7,41.2,79.6,41.5,77.8,42.4 M8.4,63.7c0,1.3,0,2.6,0,3.8
				c1.9,0,3.8,0,5.8,0V84c1.4,0,2.8,0,4.2,0c0-5.5,0-11,0-16.5c1.9,0,3.9,0,5.8,0c0-1.3,0-2.6,0-3.8C18.9,63.7,13.6,63.7,8.4,63.7
				 M29.5,68.4c-3.1,0.4-5.7,2.6-6.6,5.7c-0.4,1.5-0.4,3-0.1,4.5c0.5,2.1,1.9,3.8,3.7,4.9c1.9,1,4,1.3,6.1,0.8
				c2.2-0.5,4-1.9,5.1-3.8c1-1.8,1.3-3.9,0.8-5.9c-0.5-2.1-1.9-4-3.8-5.1C33.2,68.5,31.3,68.1,29.5,68.4 M8.9,90.8
				c2,7.1,4,14.3,6,21.4c1.6,0,3.2,0,4.8,0c0.8-2.8,1.6-5.6,2.4-8.4c0.6-1.9,1-3.8,1.6-5.6c1.3,4.7,2.7,9.4,4,14.1
				c1.6,0,3.2,0,4.8,0c2-7.1,4-14.3,6-21.4c-1.5,0-3,0-4.4,0c-1.3,5.3-2.7,10.6-4.1,15.8c-1.5-5.3-3-10.5-4.5-15.8
				c-1.2,0-2.4,0-3.6,0c-1.5,5.3-3,10.6-4.4,15.8c-1.4-5.3-2.7-10.6-4.1-15.9C11.9,90.8,10.4,90.8,8.9,90.8 M68.6,90.8
				c0,7.1,0,14.3,0,21.4c1.3,0,2.6,0,4,0v-6.9c1.9,2.3,3.7,4.6,5.6,6.9c1.5,0,3.1,0,4.6,0c-2.1-2.6-4.2-5.2-6.3-7.7
				c2-2.5,4.1-5,6.1-7.6c-1.6,0-3.1,0-4.7,0c-1.8,2.2-3.5,4.5-5.3,6.7c0-4.3,0-8.5,0-12.8C71.3,90.8,70,90.8,68.6,90.8 M44.9,96.6
				c-3.3,0.5-6,3.1-6.6,6.4c-0.2,1.2-0.2,2.3,0.1,3.5c0.7,3,3,5.3,5.9,5.9c1.4,0.3,2.9,0.3,4.4-0.1c1.9-0.6,3.6-1.9,4.6-3.7
				c1-1.8,1.3-4,0.8-6c-0.5-2.1-1.8-3.9-3.7-5C48.8,96.6,46.8,96.2,44.9,96.6 M62.8,97.3c-0.8,0.5-1.4,1.2-1.7,2.1
				c0-0.9,0-1.7,0-2.6c-1.3,0-2.6,0-4,0c0,5.1,0,10.2,0,15.3c1.3,0,2.6,0,4,0c0-2.5,0-5,0-7.4c0-1,0.3-2,1-2.7
				c1-0.9,2.3-1.3,3.6-1.1c0-1.5,0-2.9,0-4.4C64.7,96.6,63.7,96.8,62.8,97.3 M86.5,106.1c-1.8,0.6-2.8,2.6-2.2,4.4
				c0.1,0.2,0.1,0.4,0.2,0.5c0.9,1.7,3,2.3,4.7,1.4s2.3-3,1.4-4.7C89.9,106.3,88.1,105.6,86.5,106.1z"/>
			<path id="Path_1150" class="st1" d="M49.4,18.6c1.4-0.7,3.1-0.5,4.4,0.4c0.7,0.6,1.2,1.4,1.4,2.3c-2.6,0-5.2,0-7.8,0
				C47.6,20.1,48.3,19.1,49.4,18.6z"/>
			<path id="Path_1151" class="st1" d="M67.8,18.5c1.2-0.3,2.5-0.2,3.6,0.5c0.9,0.6,1.5,1.5,1.8,2.5c0.4,1.4,0,3-0.9,4.1
				c-1.6,1.8-4.4,1.9-6.2,0.2c-1.7-1.8-1.6-4.7,0.2-6.4C66.7,19,67.2,18.7,67.8,18.5z"/>
			<path id="Path_1152" class="st1" d="M15.4,39.7c1.3,0,2.5,0,3.8,0c0.8,0,1.6,0.3,2.2,0.9c1,1.1,1.2,2.7,0.5,4
				c-0.5,0.9-1.5,1.5-2.5,1.5c-1.3,0-2.6,0-3.9,0C15.4,44,15.4,41.9,15.4,39.7z"/>
			<path id="Path_1153" class="st1" d="M79.8,45.4c1.4-0.6,3.1-0.5,4.3,0.4c0.7,0.6,1.2,1.4,1.4,2.3c-2.6,0-5.2,0-7.8,0
				C77.9,46.9,78.7,45.9,79.8,45.4z"/>
			<path id="Path_1154" class="st1" d="M44.1,45.3c1.3-0.2,2.6,0.1,3.6,1c1.8,1.7,2,4.5,0.3,6.4c0,0,0,0-0.1,0.1
				c-1.7,1.6-4.4,1.6-6.1-0.1c-1.6-1.8-1.5-4.6,0.3-6.3C42.6,45.7,43.3,45.4,44.1,45.3z"/>
			<path id="Path_1155" class="st1" d="M29.5,72.4c0.8-0.2,1.6-0.2,2.4,0c1.4,0.4,2.5,1.5,2.9,3c0.4,1.4,0,3-1,4.1
				c-1.6,1.6-4.1,1.7-5.8,0.3c-1.8-1.7-1.8-4.5-0.1-6.3l0,0C28.3,72.9,28.8,72.5,29.5,72.4z"/>
			<path id="Path_1156" class="st1" d="M45.1,100.5c0.7-0.2,1.5-0.2,2.2,0c1.5,0.4,2.7,1.6,3,3.1c0.2,1.1,0.1,2.1-0.4,3.1
				c-0.6,1-1.5,1.7-2.6,2c-1.3,0.3-2.7,0-3.7-0.8c-1.8-1.7-1.9-4.5-0.3-6.3c0-0.1,0.1-0.1,0.2-0.2C43.9,100.9,44.5,100.6,45.1,100.5
				z"/>
			<path id="Path_1157" class="st1" d="M87.1,106.6c0.9-0.2,1.8,0.1,2.5,0.7c1.2,1.2,1.1,3.1,0,4.3c-0.1,0.1-0.1,0.1-0.2,0.2
				c-1.1,0.8-2.7,0.7-3.7-0.2c-1.1-1.2-1.1-3,0-4.2C86,106.9,86.6,106.7,87.1,106.6 M86.4,107.7c0,1.1,0,2.3,0,3.4
				c0.2,0,0.5,0,0.7,0c0-0.4,0-0.9,0-1.3c0.1,0,0.3,0,0.4,0c0.3,0.4,0.5,0.9,0.8,1.3c0.3,0,0.5,0,0.8,0c-0.3-0.5-0.6-1-0.9-1.4
				c0.5-0.2,0.8-0.8,0.6-1.3c-0.1-0.2-0.2-0.3-0.3-0.5C87.9,107.6,87.2,107.6,86.4,107.7L86.4,107.7z"/>
			<path id="Path_1158" class="st1" d="M87.2,108.2c0.3,0,0.5,0,0.8,0.1c0.2,0.2,0.3,0.5,0.1,0.7c-0.1,0.1-0.2,0.2-0.3,0.2
				c-0.2,0-0.4,0-0.7,0C87.2,108.9,87.2,108.6,87.2,108.2z"/>
		</g>
		<path id="Path_1159" class="st2" d="M15.8,9.1c2.2-0.7,4.5-0.8,6.7-0.2c2.6,0.7,4.9,2.3,6.4,4.6c-1.2,0.7-2.4,1.4-3.6,2.1
			c-1.1-1.7-2.9-2.8-5-2.9c-2-0.3-4,0.4-5.6,1.7c-1.2,1.1-1.9,2.5-2.1,4.1c-0.3,2,0.2,4,1.4,5.6c1.1,1.4,2.8,2.3,4.6,2.5
			c1.8,0.3,3.7,0,5.3-0.9c1.1-0.7,1.9-1.8,2.3-3c-2.2,0-4.3,0-6.5,0c0-1.2,0-2.5,0-3.7c3.6,0,7.2,0,10.7,0c0.1,1.6,0,3.2-0.4,4.7
			c-0.7,2.7-2.5,4.9-5,6.1c-2.5,1.1-5.3,1.4-8,0.8c-4.2-0.9-7.4-4.2-8.3-8.3C8,19.4,8.4,16.5,9.8,14C11.1,11.7,13.3,10,15.8,9.1z"/>
		<path id="Path_1160" class="st2" d="M82.7,12c1.3-0.4,2.6-0.8,4-1.2c0,1.4,0,2.8,0,4.3c1.1,0,2.3,0,3.4,0c0,1.3,0,2.5,0,3.8
			c-1.2,0-2.3,0-3.5,0c0,2.1,0,4.2,0,6.3c-0.1,0.6,0.2,1.1,0.7,1.4c0.9,0.3,1.8,0.3,2.8,0.2c0,1.2,0,2.4,0,3.6
			c-1.7,0.3-3.5,0.2-5.1-0.4c-1-0.5-1.8-1.3-2-2.4c-0.3-1.2-0.4-2.4-0.3-3.7c0-1.7,0-3.3,0-5c-0.9,0-1.8,0-2.7,0c0-1.3,0-2.5,0-3.8
			c0.9,0,1.8,0,2.7,0C82.8,14,82.8,13,82.7,12z"/>
		<path id="Path_1161" class="st2" d="M49.3,14.8c2.1-0.5,4.3-0.2,6.2,0.9c1.8,1.2,3,3,3.4,5c0.2,1.2,0.2,2.3,0,3.5
			c-3.8,0-7.7,0-11.5,0c0.3,1.2,1.2,2.2,2.3,2.6c1.8,0.6,4.2,0.4,5.4-1.2c1.1,0.6,2.1,1.2,3.2,1.8c-1.1,1.6-2.8,2.8-4.8,3.1
			c-2.3,0.5-4.7,0.1-6.8-1.1c-1.8-1.2-3-3.1-3.4-5.2c-0.4-2.2,0.1-4.5,1.3-6.4C45.8,16.3,47.4,15.2,49.3,14.8 M49.4,18.5
			c-1.1,0.5-1.8,1.5-2.1,2.7c2.6,0,5.2,0,7.8,0c-0.2-0.9-0.7-1.7-1.4-2.3C52.5,18,50.8,17.9,49.4,18.5L49.4,18.5z"/>
		<path id="Path_1162" class="st2" d="M66.7,14.8c2.4-0.6,5,0.2,6.6,2c0-0.6,0-1.2,0-1.8c1.3,0,2.6,0,3.9,0v15.3h-4
			c0-0.6,0-1.2,0-1.8c-0.8,1.1-2,1.8-3.3,2c-1.7,0.4-3.5,0.1-5-0.7c-2-1.2-3.4-3.2-3.9-5.4c-0.4-2.1-0.1-4.3,1-6.2
			C63.1,16.5,64.7,15.3,66.7,14.8 M67.8,18.5c-0.6,0.2-1.1,0.5-1.6,0.9c-1.8,1.7-1.9,4.6-0.2,6.4c1.8,1.6,4.6,1.5,6.2-0.2
			c0.9-1.1,1.3-2.7,0.9-4.1c-0.3-1-0.9-1.9-1.8-2.5C70.3,18.4,69,18.2,67.8,18.5L67.8,18.5z"/>
		<path id="Path_1163" class="st2" d="M38.5,15.4c0.8-0.4,1.7-0.7,2.6-0.7c0.1,1.5,0,3,0,4.4c-1.3-0.2-2.5,0.2-3.5,1.1
			c-0.6,0.7-1,1.7-0.9,2.6c0,2.5,0,5,0,7.5c-1.2,0-2.5,0-3.7,0c0-5.1,0-10.2,0-15.3h3.8c0,0.8,0,1.7,0,2.5
			C37,16.7,37.7,15.9,38.5,15.4z"/>
		<path id="Path_1164" class="st2" d="M11.2,57.2c0-7.1,0-14.3,0-21.4c2.2,0,4.4,0,6.7,0c1,0,1.9,0,2.9,0.1c2.7,0.5,4.9,2.6,5.6,5.3
			c0.3,1.4,0.2,2.8-0.2,4.2c-0.9,2.6-3.3,4.5-6.1,4.7c-1.5,0.1-3,0-4.6,0c0,2.3,0,4.7,0,7C14,57.2,12.6,57.2,11.2,57.2 M15.4,39.7
			c0,2.2,0,4.3,0,6.5c1.3,0,2.6,0,3.9,0c1.1,0,2-0.6,2.5-1.5c0.7-1.3,0.5-2.9-0.5-4c-0.6-0.6-1.4-0.9-2.2-0.9
			C17.9,39.7,16.6,39.7,15.4,39.7L15.4,39.7z"/>
		<path id="Path_1165" class="st2" d="M29.3,36h3.9c0,7.1,0,14.1,0,21.2c-1.3,0-2.6,0-3.9,0C29.3,50.1,29.3,43.1,29.3,36z"/>
		<path id="Path_1166" class="st2" d="M37.9,45.1c1.1-1.9,3-3.1,5.1-3.5c1.6-0.3,3.3,0,4.7,0.9c0.5,0.3,1,0.8,1.4,1.3
			c0-0.6,0-1.2,0-1.8c1.3,0,2.6,0,4,0c0,5.1,0,10.2,0,15.3c-1.3,0-2.6,0-4,0c0-0.6,0-1.2,0-1.8c-0.8,1-1.8,1.6-3,2
			c-1.9,0.5-3.9,0.2-5.6-0.7c-1.9-1.2-3.2-3.1-3.6-5.3C36.4,49.2,36.8,47,37.9,45.1 M44.1,45.3c-0.8,0.1-1.5,0.4-2.1,1
			c-1.8,1.7-1.9,4.5-0.3,6.3c1.7,1.7,4.4,1.7,6.1,0.1c1.7-1.8,1.7-4.6-0.1-6.4c0,0,0,0-0.1-0.1C46.7,45.4,45.4,45.1,44.1,45.3
			L44.1,45.3z"/>
		<path id="Path_1167" class="st2" d="M62.2,41.8c2.2-0.6,4.5-0.3,6.5,0.8c1.1,0.7,2,1.6,2.7,2.8c-1.1,0.7-2.3,1.3-3.4,2
			c-1.1-2-3.6-2.6-5.6-1.5C62.3,46,62.1,46,62,46.1c-1.9,1.5-2.2,4.3-0.7,6.2c0.1,0.1,0.2,0.2,0.3,0.3c1.8,1.7,5.2,1.4,6.4-0.9
			c1.1,0.7,2.3,1.3,3.4,2c-1.1,1.9-3,3.3-5.2,3.8c-1.7,0.4-3.5,0.2-5.2-0.5c-2.4-1.1-4-3.2-4.5-5.7c-0.3-1.6-0.2-3.2,0.4-4.8
			C57.9,44.2,59.8,42.4,62.2,41.8z"/>
		<path id="Path_1168" class="st2" d="M77.8,42.4c1.8-0.9,3.9-1.1,5.9-0.7c2.1,0.5,3.8,1.9,4.8,3.8c0.9,1.7,1.2,3.7,0.8,5.6
			c-3.7,0-7.4,0-11.1,0c-0.1,0-0.5,0-0.3,0.2c0.3,1.1,1.2,2,2.3,2.4c1.8,0.6,4.1,0.4,5.4-1.2c1.1,0.6,2.1,1.2,3.2,1.8
			c-0.7,1.1-1.7,1.9-2.9,2.5c-1.9,0.8-3.9,1-5.9,0.6c-2.1-0.4-3.9-1.6-5-3.4c-1.1-1.9-1.5-4.1-1.1-6.2
			C74.2,45.5,75.7,43.5,77.8,42.4 M79.8,45.4c-1.1,0.5-1.9,1.5-2.1,2.7c2.6,0,5.2,0,7.8,0c-0.2-0.9-0.7-1.7-1.4-2.3
			C82.8,44.9,81.2,44.8,79.8,45.4L79.8,45.4z"/>
		<path id="Path_1169" class="st2" d="M8.4,63.7c5.3,0,10.5,0,15.8,0c0,1.3,0,2.6,0,3.8c-1.9,0-3.9,0-5.8,0c0,5.5,0,11,0,16.5
			c-1.4,0-2.8,0-4.2,0V67.6c-1.9,0-3.8,0-5.8,0C8.4,66.3,8.4,65,8.4,63.7z"/>
		<path id="Path_1170" class="st2" d="M29.5,68.4c1.8-0.3,3.7,0.1,5.3,1c1.9,1.1,3.2,3,3.8,5.1c0.5,2,0.2,4.1-0.8,5.9
			c-1.1,1.9-2.9,3.3-5.1,3.8c-2.1,0.5-4.2,0.2-6.1-0.8c-1.8-1.1-3.2-2.8-3.7-4.9c-0.4-1.5-0.3-3,0.1-4.5
			C23.8,71.1,26.4,68.8,29.5,68.4 M29.5,72.4c-0.6,0.2-1.2,0.5-1.7,1c-1.7,1.8-1.7,4.6,0.1,6.3l0,0c1.7,1.4,4.2,1.3,5.8-0.3
			c1-1.1,1.4-2.6,1-4.1c-0.3-1.4-1.4-2.6-2.9-3C31.1,72.2,30.2,72.2,29.5,72.4L29.5,72.4z"/>
		<path id="Path_1171" class="st2" d="M8.9,90.8c1.5,0,2.9,0,4.4,0c1.4,5.3,2.7,10.6,4.1,15.9c1.5-5.3,3-10.6,4.4-15.8
			c1.2,0,2.4,0,3.6,0c1.5,5.3,3,10.6,4.5,15.8c1.3-5.3,2.7-10.6,4.1-15.8c1.5,0,3,0,4.4,0c-2,7.1-4,14.3-6,21.4c-1.6,0-3.2,0-4.8,0
			c-1.3-4.7-2.7-9.4-4-14.1c-0.6,1.9-1.1,3.8-1.6,5.6c-0.8,2.8-1.6,5.6-2.4,8.4c-1.6,0-3.2,0-4.8,0C12.9,105.1,10.9,97.9,8.9,90.8z"
			/>
		<path id="Path_1172" class="st2" d="M68.6,90.8c1.3,0,2.6,0,4,0c0,4.3,0,8.5,0,12.8c1.8-2.2,3.5-4.5,5.3-6.7c1.6,0,3.1,0,4.7,0
			c-2,2.5-4.1,5-6.1,7.6c2.1,2.6,4.2,5.2,6.3,7.7c-1.5,0-3.1,0-4.6,0c-1.9-2.3-3.7-4.6-5.6-6.9v6.9c-1.3,0-2.6,0-4,0
			C68.6,105.1,68.6,97.9,68.6,90.8z"/>
		<path id="Path_1173" class="st2" d="M44.9,96.6c1.9-0.3,3.9,0.1,5.5,1c1.9,1.1,3.2,2.9,3.7,5c0.5,2,0.2,4.2-0.8,6
			s-2.7,3.1-4.6,3.7c-1.4,0.4-2.9,0.4-4.4,0.1c-3-0.7-5.3-3-5.9-5.9c-0.2-1.2-0.3-2.3-0.1-3.5C38.9,99.7,41.6,97.1,44.9,96.6
			 M45.1,100.5c-0.6,0.2-1.2,0.5-1.7,0.9c-1.7,1.7-1.8,4.5,0,6.3c0.1,0.1,0.1,0.1,0.2,0.2c1,0.8,2.4,1.1,3.7,0.8
			c1.1-0.3,2.1-1,2.6-2s0.6-2,0.4-3.1c-0.3-1.5-1.5-2.7-3-3.1C46.6,100.3,45.9,100.3,45.1,100.5L45.1,100.5z"/>
		<path id="Path_1174" class="st2" d="M62.8,97.4c0.9-0.5,1.9-0.8,2.9-0.8c0,1.5,0,2.9,0,4.4c-1.3-0.2-2.6,0.2-3.6,1.1
			c-0.7,0.7-1.1,1.7-1,2.7c0,2.5,0,5,0,7.4c-1.3,0-2.6,0-4,0c0-5.1,0-10.2,0-15.3c1.3,0,2.6,0,4,0c0,0.9,0,1.7,0,2.6
			C61.4,98.6,62.1,97.9,62.8,97.4z"/>
		<path id="Path_1175" class="st2" d="M86.5,106.1c1.2-0.4,2.5-0.1,3.4,0.7c1.4,1.3,1.6,3.5,0.3,4.9c-1.3,1.4-3.5,1.6-4.9,0.3
			s-1.6-3.5-0.3-4.9C85.4,106.7,85.9,106.3,86.5,106.1 M87.1,106.6c-0.6,0.1-1.1,0.3-1.5,0.7c-1.1,1.2-1.1,3.1,0,4.2
			c1,0.9,2.6,1,3.7,0.2c1.3-1.1,1.5-3,0.4-4.2c-0.1-0.1-0.1-0.1-0.2-0.2C88.9,106.7,88,106.4,87.1,106.6L87.1,106.6z"/>
		<path id="Path_1176" class="st2" d="M86.4,107.7c0.7-0.1,1.5,0,2.1,0.2c0.4,0.4,0.5,1,0.1,1.4c-0.1,0.1-0.3,0.3-0.5,0.3
			c0.3,0.5,0.6,0.9,0.9,1.4c-0.3,0-0.5,0-0.8,0c-0.3-0.4-0.5-0.9-0.8-1.3c-0.1,0-0.3,0-0.4,0c0,0.4,0,0.9,0,1.3c-0.2,0-0.5,0-0.7,0
			C86.4,109.9,86.4,108.8,86.4,107.7 M87.2,108.2c0,0.3,0,0.7,0,1c0.2,0,0.4,0,0.7,0c0.3-0.1,0.4-0.4,0.3-0.6c0-0.1-0.1-0.2-0.2-0.3
			C87.7,108.2,87.5,108.2,87.2,108.2L87.2,108.2z"/>
		<g>
			<path class="st2" d="M62.2,151.9c1.2,0,2.4,0,3.6,0V139c-1.2,0-2.4,0-3.6,0C62.2,143.3,62.2,147.6,62.2,151.9z"/>
			<path class="st2" d="M63.7,132.7c-0.1,0-0.2,0-0.3,0.1c-1.1,0.3-1.7,1.4-1.5,2.5c0.3,1.2,1.4,1.9,2.6,1.7
				c1.1-0.2,1.8-1.3,1.7-2.4C66,133.4,64.9,132.5,63.7,132.7z"/>
			<path class="st2" d="M57.3,139.1c0-1.4,0-2.8,0-4.2c-1.2,0-2.4,0-3.6,0c0,1.4,0,2.8,0,4.2h-2.3c0,1,0,2.1,0,3.1
				c0.8,0,1.6,0,2.3,0c0,1.9,0,3.9,0,5.8c-0.1,1.3,0.6,2.6,1.7,3.4c1.6,0.8,3.3,1,5,0.6c0-1.1,0-2.2,0-3.2c-0.7,0.2-1.5,0.2-2.2-0.1
				c-0.6-0.3-0.9-1-0.8-1.6c0-1.6,0-3.2,0-4.8c1,0,2,0,3,0c0-1,0-2.1,0-3.1C59.3,139.1,58.3,139.1,57.3,139.1z"/>
			<path class="st2" d="M20.7,148.2c-2.1,1-4.7,0.6-6.4-1c-1.1-1.3-1.7-3-1.6-4.7c0-1.7,0.6-3.3,1.7-4.6c1.7-1.5,4.1-1.9,6.1-0.9
				c1.4,0.7,2.3,2,2.6,3.5c1.3-0.1,2.7-0.2,4-0.3c-0.3-1.9-1.2-3.6-2.5-4.8c-1.7-1.5-4-2.3-6.3-2.3c-2.3-0.1-4.6,0.7-6.4,2.2l0,0
				c-1.6,1.5-2.7,3.5-2.9,5.7c-0.4,2.6,0.2,5.3,1.6,7.5c1.3,1.8,3.3,3.1,5.6,3.5c2.8,0.6,5.7,0,8-1.6c1.6-1.3,2.7-3.1,3-5.2
				c-1.3-0.1-2.7-0.2-4-0.4C22.9,146.3,22,147.5,20.7,148.2z"/>
			<path class="st2" d="M40.8,143.6c-0.2-1.3-0.9-2.5-1.8-3.4c-1.1-0.9-2.5-1.4-3.9-1.4c-1.6-0.1-3.2,0.4-4.5,1.4l0,0
				c-1.2,1-2,2.5-2.2,4c-0.3,1.8,0,3.7,1,5.3c0.9,1.3,2.3,2.2,3.8,2.5c1.8,0.4,3.7,0.1,5.3-0.8c1.2-0.7,2-1.8,2.3-3.2
				c-1.2-0.2-2.4-0.1-3.6-0.2c-0.2,0.6-0.7,1.1-1.3,1.3c-1,0.3-2.1,0.1-2.9-0.5c-0.5-0.5-0.8-1.2-0.8-1.9c2.9,0,5.9,0,8.8,0
				C41,145.6,41,144.6,40.8,143.6z M32.1,144.2c0-0.9,0.5-1.7,1.2-2.2c0.9-0.5,2-0.5,2.9,0c0.7,0.5,1.1,1.3,1,2.2
				C35.6,144.2,33.9,144.2,32.1,144.2z"/>
			<path class="st2" d="M46.2,140.5L46.2,140.5L46.2,140.5L46.2,140.5c0-0.5,0-0.9,0-1.4c-1.2,0-2.3,0-3.5,0c0,4.3,0,8.6,0,12.8
				c1.2,0,2.4,0,3.6,0c0-2.2,0-4.3,0-6.5c0-0.9,0.4-1.7,1-2.2c0.7-0.5,1.5-0.8,2.4-0.7c0-1.2,0-2.3,0-3.5
				C48.4,138.8,47.1,139.4,46.2,140.5z"/>
			<path class="st2" d="M79.8,132.7c-0.1,0-0.2,0-0.3,0.1l0,0c-1.1,0.3-1.8,1.4-1.6,2.5c0.2,1.2,1.4,1.9,2.6,1.7
				c1.1-0.2,1.9-1.3,1.7-2.4C82.1,133.4,81,132.5,79.8,132.7z"/>
			<path class="st2" d="M72.3,133L72.3,133c-1.1,0.5-2,1.4-2.4,2.5s-0.5,2.4-0.4,3.6c-0.8,0-1.6,0-2.3,0v3.1c0.8,0,1.6,0,2.3,0
				c0,3.2,0,6.5,0,9.7c1.2,0,2.4,0,3.6,0c0-3.2,0-6.5,0-9.7c1,0,2,0,3,0v-3.1c-1,0-2,0-3,0c0.1-0.9-0.2-2,0.5-2.8
				c0.7-0.6,1.6-0.9,2.5-0.7c0-1,0-2.1,0-3.1C74.8,132.3,73.5,132.5,72.3,133z"/>
			<path class="st2" d="M107.2,132.6L107.2,132.6c0,2.5,0,5,0,7.5c-1-0.9-2.4-1.4-3.8-1.3c-1.6,0-3.2,0.7-4.3,1.8
				c-1.2,1.4-1.8,3.1-1.7,4.9c-0.1,1.9,0.7,3.7,2,5.1c1.5,1.3,3.5,1.8,5.4,1.5c1-0.2,1.9-0.7,2.6-1.4c0,0.4,0.1,0.8,0,1.3
				c1.1,0,2.3,0,3.4,0c0-6.4,0-12.9,0-19.3C109.6,132.6,108.4,132.6,107.2,132.6z M107.2,146.3c-0.1,1-0.6,1.9-1.5,2.4
				c-1.2,0.6-2.6,0.5-3.7-0.4c-0.6-0.7-1-1.5-1-2.4c-0.1-1,0.1-1.9,0.7-2.7c0.4-0.6,1-1,1.8-1.1c1.1-0.3,2.3,0.1,3.1,1
				C107.1,144,107.3,145.2,107.2,146.3z"/>
			<path class="st2" d="M91.7,139c-1.9-0.4-4,0-5.6,1.1l0,0c-1.3,1-2.1,2.4-2.3,4c-0.4,1.9,0,3.8,1,5.4c0.8,1.3,2.1,2.1,3.6,2.5
				c1.9,0.5,3.8,0.2,5.5-0.7c1.2-0.7,2-1.9,2.3-3.2c-1.2-0.1-2.4-0.1-3.6-0.2c-0.2,0.6-0.7,1-1.3,1.2c-1,0.4-2.2,0.2-3-0.5
				c-0.5-0.5-0.8-1.2-0.8-1.9c2.9,0,5.9,0,8.8,0c0.2-1.7-0.1-3.4-0.8-5C94.7,140.2,93.3,139.3,91.7,139z M87.5,144.2
				c0-1,0.5-1.9,1.4-2.3c0.9-0.4,2-0.4,2.9,0.2c0.6,0.5,0.9,1.3,0.9,2.1C90.9,144.2,89.2,144.2,87.5,144.2z"/>
			<path class="st2" d="M78.3,139.1c0,4.3,0,8.6,0,12.9c1.2,0,2.4,0,3.6,0c0-4.3,0-8.6,0-12.8C80.7,139.1,79.5,139.1,78.3,139.1
				L78.3,139.1z"/>
		</g>
	</g>
	<g>
		<path class="st0" d="M116.1,161.2h-0.8v2.9h-0.9v-2.9h-0.8v-0.8h2.5V161.2z"/>
		<path class="st0" d="M119,163.8h-0.8l-0.8-2.1v2.4h-0.9v-3.7h1.2l0.9,2.3l0.9-2.3h1.2v3.7h-0.9v-2.4L119,163.8z"/>
	</g>
</g>
</svg>
